<?xml version="1.0" encoding="utf-8"?>
<!-- Generator: Adobe Illustrator 23.0.2, SVG Export Plug-In . SVG Version: 6.00 Build 0)  -->
<svg version="1.1" xmlns="http://www.w3.org/2000/svg" xmlns:xlink="http://www.w3.org/1999/xlink" x="0px" y="0px"
	 viewBox="0 0 2048 2048" style="enable-background:new 0 0 2048 2048;" xml:space="preserve">
<style type="text/css">
	.st0{fill:url(#SVGID_1_);}
	.st1{fill:#461515;}
	.st2{fill:url(#SVGID_2_);}
	.st3{clip-path:url(#XMLID_13_);fill:url(#XMLID_14_);}
	.st4{fill:#4FB44D;}
	.st5{fill:#CEE18C;}
	.st6{fill:url(#SVGID_3_);}
	.st7{fill:url(#SVGID_4_);}
	.st8{fill:url(#SVGID_5_);}
	.st9{opacity:0.81;}
	.st10{fill:#FFFFFF;}
	.st11{fill:#542A1A;}
	.st12{fill:#F1A221;}
	.st13{fill:url(#SVGID_6_);}
	.st14{fill:#EA6726;}
	.st15{fill:url(#SVGID_7_);}
	.st16{display:none;}
	.st17{display:inline;}
	.st18{display:inline;clip-path:url(#XMLID_15_);fill:#A61E22;}
	.st19{display:none;fill:#FFFFFF;stroke:#542A19;stroke-width:8;stroke-miterlimit:10;}
	.st20{fill:#542A19;}
	.st21{fill:none;stroke:#542A1A;stroke-width:5;stroke-miterlimit:10;}
	.st22{fill:url(#SVGID_8_);}
	.st23{display:none;fill:none;stroke:#444B54;stroke-width:40;stroke-linecap:round;stroke-miterlimit:10;}
	.st24{display:none;fill:#F2A81E;}
	.st25{opacity:0.76;fill:#461515;}
	.st26{display:inline;clip-path:url(#XMLID_17_);fill:#A61E22;}
	.st27{fill:url(#SVGID_9_);}
	.st28{display:inline;clip-path:url(#XMLID_18_);fill:#A61E22;}
	.st29{display:inline;clip-path:url(#XMLID_21_);fill:#A61E22;}
	.st30{fill:#B2D1E1;}
	.st31{fill:#CFDAE0;}
	.st32{fill:url(#SVGID_10_);}
	.st33{opacity:0.81;fill:none;stroke:#FFFFFF;stroke-width:60;stroke-linecap:round;stroke-miterlimit:10;}
	.st34{display:inline;clip-path:url(#XMLID_22_);fill:#A61E22;}
	.st35{display:none;fill:none;stroke:#542A19;stroke-width:40;stroke-linecap:round;stroke-miterlimit:10;}
	.st36{fill:#451716;}
	.st37{fill:url(#SVGID_11_);}
	.st38{display:inline;clip-path:url(#XMLID_23_);fill:#A61E22;}
	.st39{display:inline;clip-path:url(#XMLID_24_);fill:#A61E22;}
	.st40{fill:url(#SVGID_12_);}
	.st41{fill:#542A1B;}
	.st42{fill:url(#SVGID_13_);}
	.st43{display:inline;clip-path:url(#XMLID_25_);fill:#A61E22;}
	.st44{display:inline;clip-path:url(#XMLID_26_);fill:#A61E22;}
	.st45{fill:url(#SVGID_14_);}
	.st46{fill:url(#SVGID_15_);}
	.st47{fill:url(#SVGID_16_);}
	.st48{opacity:0.64;fill:#606161;}
	.st49{fill:url(#SVGID_17_);}
	.st50{fill:url(#SVGID_18_);}
	.st51{fill:url(#SVGID_19_);}
	.st52{fill:#441716;}
	.st53{fill:url(#SVGID_20_);}
	.st54{fill:none;stroke:#451716;stroke-width:20;stroke-linecap:round;stroke-miterlimit:10;}
	.st55{fill:url(#SVGID_21_);}
	.st56{fill:url(#SVGID_22_);}
	.st57{fill:#F1A81F;}
	.st58{fill:url(#SVGID_23_);}
	.st59{fill:url(#SVGID_24_);}
	.st60{fill:#680D0D;}
	.st61{fill:#A61E22;}
	.st62{fill:url(#SVGID_25_);}
	.st63{fill:url(#SVGID_26_);}
	.st64{fill:url(#SVGID_27_);}
	.st65{fill:none;stroke:#451716;stroke-width:40;stroke-linecap:round;stroke-miterlimit:10;}
	.st66{fill:url(#SVGID_28_);}
	.st67{fill:url(#SVGID_29_);}
	.st68{fill:#F1F2F2;}
	.st69{fill:#BE1E2D;}
	.st70{fill:url(#SVGID_30_);}
	.st71{fill:#E6E7E8;}
	.st72{fill:url(#SVGID_31_);}
	.st73{fill:#7AA540;}
	.st74{fill:url(#SVGID_32_);}
	.st75{fill:url(#SVGID_33_);}
	.st76{fill:url(#SVGID_34_);}
	.st77{fill:url(#SVGID_35_);}
	.st78{fill:url(#SVGID_36_);}
	.st79{fill:url(#SVGID_37_);}
	.st80{fill:url(#SVGID_38_);}
	.st81{fill:url(#SVGID_39_);}
	.st82{fill:url(#SVGID_40_);}
	.st83{fill:url(#SVGID_41_);}
	.st84{fill:url(#SVGID_42_);}
	.st85{fill:url(#SVGID_43_);}
	.st86{fill:url(#SVGID_44_);}
	.st87{fill:url(#SVGID_45_);}
	.st88{fill:url(#SVGID_46_);}
	.st89{fill:url(#SVGID_47_);}
	.st90{fill:url(#SVGID_48_);}
	.st91{fill:url(#SVGID_49_);}
	.st92{fill:url(#SVGID_50_);}
	.st93{fill:url(#SVGID_51_);}
	.st94{fill:url(#SVGID_52_);}
	.st95{fill:url(#SVGID_53_);}
	.st96{fill:#D1D3D4;}
</style>
<g id="Guides">
</g>
<g id="Layer_2">
</g>
<g id="Layer_3">
</g>
<g id="Layer_4">
</g>
<g id="Layer_5">
</g>
<g id="Layer_6">
</g>
<g id="Layer_7">
</g>
<g id="Layer_8">
</g>
<g id="Layer_9">
</g>
<g id="Layer_10">
</g>
<g id="Layer_11">
</g>
<g id="Layer_12">
</g>
<g id="Layer_13">
</g>
<g id="Layer_14">
</g>
<g id="Layer_15">
</g>
<g id="Layer_16">
</g>
<g id="Layer_17">
	<g>
		<linearGradient id="SVGID_1_" gradientUnits="userSpaceOnUse" x1="280.28" y1="1024" x2="1767.72" y2="1024">
			<stop  offset="0" style="stop-color:#FEDC52"/>
			<stop  offset="0.9947" style="stop-color:#FCB117"/>
		</linearGradient>
		<circle class="st0" cx="1024" cy="1024" r="743.72"/>
		<g class="st9">
			<path class="st10" d="M540.23,770.15c-2.07,0-4.16-0.21-6.27-0.66c-16.21-3.44-26.55-19.38-23.11-35.58
				c21.98-103.42,83.1-188.9,176.75-247.22c76.02-47.35,171.49-74.41,262.28-74.41c0.78,0,1.54,0,2.32,0.01
				c16.57,0.08,29.93,13.58,29.85,30.15c-0.08,16.52-13.5,29.85-30,29.85c-0.05,0-0.1,0-0.16,0c-0.58,0-1.18,0-1.77,0
				c-130.25,0-337.77,72.7-380.58,274.11C566.55,760.49,554.09,770.15,540.23,770.15z"/>
		</g>
		<g>
			<g>
				<g>
					<path class="st57" d="M605.94,884.6c-10.42,0-20.08-0.98-28.79-2.99c-10.76-2.49-17.47-13.23-14.98-23.99
						c2.49-10.76,13.23-17.47,23.99-14.98c28.1,6.49,85.48-2.8,150.29-38.2c52.94-28.91,95.36-67.01,110.7-99.43
						c4.73-9.98,16.65-14.25,26.63-9.52c9.98,4.73,14.24,16.65,9.52,26.63c-19.06,40.27-66.8,84.16-127.68,117.42
						C702.61,868.5,648.12,884.6,605.94,884.6z"/>
				</g>
			</g>
			<g>
				<g>
					<path class="st57" d="M1437.48,884.6c-42.18,0-96.66-16.1-149.69-45.06c-60.89-33.26-108.62-77.15-127.68-117.42
						c-4.73-9.98-0.46-21.91,9.52-26.63c9.98-4.73,21.91-0.47,26.63,9.52c15.35,32.41,57.77,70.51,110.7,99.43
						c64.82,35.4,122.19,44.7,150.29,38.2c10.76-2.49,21.5,4.22,23.99,14.98c2.49,10.76-4.22,21.5-14.98,23.99
						C1457.56,883.62,1447.89,884.6,1437.48,884.6z"/>
				</g>
			</g>
		</g>
		<g>
			<g>
				<g>
					<path class="st36" d="M822.59,1036.19c-49.3,0-93.56-20.05-115.53-52.32c-3.44-5.06-8.05-14.76-8.59-16.12
						c-4.07-10.27,0.96-21.89,11.23-25.96c10.04-3.98,21.37,0.74,25.68,10.54c1.01,2.17,3.77,7.57,4.76,9.03
						c14.4,21.16,46.77,34.83,82.46,34.83c33.17,0,63.6-11.81,79.43-30.82c3.16-3.79,5.61-7.77,7.28-11.82
						c4.23-10.21,15.92-15.05,26.13-10.83c10.21,4.22,15.05,15.92,10.83,26.13c-3.22,7.78-7.76,15.22-13.5,22.11
						C909.18,1019.28,868,1036.19,822.59,1036.19z M735.4,952.4c0.09,0.2,0.17,0.41,0.25,0.61
						C735.61,952.91,735.53,952.7,735.4,952.4z"/>
				</g>
			</g>
			<g>
				<g>
					<path class="st36" d="M1225.91,1036.19c-49.3,0-93.56-20.05-115.53-52.32c-3.44-5.06-8.05-14.76-8.59-16.12
						c-4.07-10.27,0.96-21.89,11.23-25.96c10.04-3.98,21.37,0.74,25.68,10.54c1.01,2.17,3.77,7.57,4.76,9.03
						c14.4,21.15,46.77,34.83,82.46,34.83c33.17,0,63.6-11.81,79.43-30.82c3.15-3.79,5.61-7.76,7.28-11.81
						c4.23-10.21,15.92-15.05,26.13-10.83c10.21,4.22,15.05,15.92,10.83,26.13c-3.22,7.78-7.76,15.22-13.5,22.11
						C1312.51,1019.28,1271.32,1036.19,1225.91,1036.19z M1138.73,952.4c0.09,0.2,0.17,0.41,0.25,0.61
						C1138.94,952.91,1138.86,952.7,1138.73,952.4z"/>
				</g>
			</g>
		</g>
		<g>
			<g>
				<path class="st36" d="M1170.14,1400.17H887.4c-11.05,0-20-8.95-20-20s8.95-20,20-20h282.73c11.05,0,20,8.95,20,20
					S1181.18,1400.17,1170.14,1400.17z"/>
			</g>
		</g>
	</g>
</g>
<g id="Layer_18">
</g>
<g id="Layer_19">
</g>
<g id="Layer_20">
</g>
<g id="Layer_21">
</g>
<g id="Layer_22">
</g>
<g id="Layer_23">
</g>
<g id="Layer_24">
</g>
<g id="Layer_25">
</g>
<g id="Layer_26">
</g>
</svg>
