<?xml version="1.0" encoding="UTF-8"?>
<!DOCTYPE svg PUBLIC "-//W3C//DTD SVG 1.1//EN" "http://www.w3.org/Graphics/SVG/1.1/DTD/svg11.dtd">
<!-- Creator: CorelDRAW -->
<svg xmlns="http://www.w3.org/2000/svg" xml:space="preserve" width="2048px" height="2048px" style="shape-rendering:geometricPrecision; text-rendering:geometricPrecision; image-rendering:optimizeQuality; fill-rule:evenodd; clip-rule:evenodd"
viewBox="0 0 2048 2048"
 xmlns:xlink="http://www.w3.org/1999/xlink">
 <defs>
  <style type="text/css">
   <![CDATA[
    .fil1 {fill:none}
    .fil2 {fill:#5D4037}
    .fil0 {fill:#FFD54F}
   ]]>
  </style>
 </defs>
 <g id="Layer_x0020_1">
  <metadata id="CorelCorpID_0Corel-Layer"/>
  <path class="fil0" d="M1024 255.999c424.155,0 768.001,343.845 768.001,768.001 0,424.155 -343.845,768.001 -768.001,768.001 -424.155,0 -768.001,-343.845 -768.001,-768.001 0,-424.155 343.845,-768.001 768.001,-768.001z"/>
  <rect class="fil1" width="2048" height="2048"/>
  <rect class="fil1" x="255.999" y="255.999" width="1536" height="1536"/>
  <rect class="fil1" width="2048" height="2048"/>
  <rect class="fil1" x="255.999" y="255.999" width="1536" height="1536"/>
  <g id="_391669496">
   <path id="_391669736" class="fil2" d="M1294.33 1429.14c-122.582,-212.321 -424.239,-201.653 -540.661,0l-55.2496 -31.7504c140.369,-243.131 503.21,-256.263 651.16,0l-55.2496 31.7504z"/>
   <ellipse id="_391669592" class="fil2" cx="1278.5" cy="768.583" rx="37.2071" ry="82.1838"/>
   <ellipse id="_391669568" class="fil2" cx="769.501" cy="768.583" rx="37.2071" ry="82.1838"/>
  </g>
 </g>
</svg>
